<svg width="75" height="110" viewBox="0 0 75 110" fill="none" xmlns="http://www.w3.org/2000/svg">
<g filter="url(#filter0_d_1_31)">
<path d="M5.85092 100L37.5 65.8161M37.5 65.8161L37.5697 65.7408M37.5 65.8161V67.9729M37.5 65.8161V65.6655M37.5697 65.7408L37.9903 65.2865M37.5697 65.7408L37.5 65.6655M37.5697 65.7408L69.2884 100M37.1491 65.2865L37.5 65.6655M37.5 65.6655V31.3764M5.85092 65.5604L37.5 31.3764M37.5 31.3764L37.5697 31.3012M37.5 31.3764V31.2259M37.5697 31.3012L37.9903 30.8469M37.5697 31.3012L37.5 31.2259M37.5697 31.3012L69.2884 65.5604M37.1491 30.8469L37.5 31.2259M37.5 31.2259V-5.72205e-06" stroke="#550000" stroke-width="3" shape-rendering="crispEdges"/>
</g>
<defs>
<filter id="filter0_d_1_31" x="0.750244" y="-5.72205e-06" width="73.6389" height="109.019" filterUnits="userSpaceOnUse" color-interpolation-filters="sRGB">
<feFlood flood-opacity="0" result="BackgroundImageFix"/>
<feColorMatrix in="SourceAlpha" type="matrix" values="0 0 0 0 0 0 0 0 0 0 0 0 0 0 0 0 0 0 127 0" result="hardAlpha"/>
<feOffset dy="4"/>
<feGaussianBlur stdDeviation="2"/>
<feComposite in2="hardAlpha" operator="out"/>
<feColorMatrix type="matrix" values="0 0 0 0 0 0 0 0 0 0 0 0 0 0 0 0 0 0 0.25 0"/>
<feBlend mode="normal" in2="BackgroundImageFix" result="effect1_dropShadow_1_31"/>
<feBlend mode="normal" in="SourceGraphic" in2="effect1_dropShadow_1_31" result="shape"/>
</filter>
</defs>
</svg>
